<svg xmlns="http://www.w3.org/2000/svg" xmlns:oryx="http://oryx-editor.org" id="_D9708087-0937-4A0A-BB0F-DB3332876D2F" width="548" height="214.1666717529297" xmlns:xlink="http://www.w3.org/1999/xlink" xmlns:svg="http://www.w3.org/2000/svg"><defs><marker id="_960D1B66-5946-4956-8622-E581743BF897start" refX="1" refY="5" markerUnits="userSpaceOnUse" markerWidth="17" markerHeight="11" orient="auto" fill="#000000" stroke="#000000"> 	  		<path id="_960D1B66-5946-4956-8622-E581743BF897conditional" d="M 0 5 L 8 0 L 16 5 L 8 10 L 0 5" fill="white" stroke="#000000" stroke-width="1" display="none"/> 			<path id="_960D1B66-5946-4956-8622-E581743BF897default" d="M 5 0 L 11 10" fill="white" stroke="#000000" stroke-width="1" display="none"/> 	  	</marker><marker id="_960D1B66-5946-4956-8622-E581743BF897end" refX="15" refY="6" markerUnits="userSpaceOnUse" markerWidth="15" markerHeight="12" orient="auto" fill="#000000" stroke="#000000"> 	  		<path id="_960D1B66-5946-4956-8622-E581743BF897frame2" d="M 0 1 L 15 6 L 0 11z" fill="#000000" stroke="#000000" stroke-linejoin="round" stroke-width="2"/> 	  	</marker><marker id="_AB5940FB-773B-44DD-9CB9-C86C73CFB565start" refX="1" refY="5" markerUnits="userSpaceOnUse" markerWidth="17" markerHeight="11" orient="auto" fill="#000000" stroke="#000000"> 	  		<path id="_AB5940FB-773B-44DD-9CB9-C86C73CFB565conditional" d="M 0 5 L 8 0 L 16 5 L 8 10 L 0 5" fill="white" stroke="#000000" stroke-width="1" display="none"/> 			<path id="_AB5940FB-773B-44DD-9CB9-C86C73CFB565default" d="M 5 0 L 11 10" fill="white" stroke="#000000" stroke-width="1" display="none"/> 	  	</marker><marker id="_AB5940FB-773B-44DD-9CB9-C86C73CFB565end" refX="15" refY="6" markerUnits="userSpaceOnUse" markerWidth="15" markerHeight="12" orient="auto" fill="#000000" stroke="#000000"> 	  		<path id="_AB5940FB-773B-44DD-9CB9-C86C73CFB565frame2" d="M 0 1 L 15 6 L 0 11z" fill="#000000" stroke="#000000" stroke-linejoin="round" stroke-width="2"/> 	  	</marker><marker id="_F2A6A99F-C696-424A-800F-88BA62595700start" refX="1" refY="5" markerUnits="userSpaceOnUse" markerWidth="17" markerHeight="11" orient="auto" fill="#000000" stroke="#000000"> 	  		<path id="_F2A6A99F-C696-424A-800F-88BA62595700conditional" d="M 0 5 L 8 0 L 16 5 L 8 10 L 0 5" fill="white" stroke="#000000" stroke-width="1" display="none"/> 			<path id="_F2A6A99F-C696-424A-800F-88BA62595700default" d="M 5 0 L 11 10" fill="white" stroke="#000000" stroke-width="1" display="none"/> 	  	</marker><marker id="_F2A6A99F-C696-424A-800F-88BA62595700end" refX="15" refY="6" markerUnits="userSpaceOnUse" markerWidth="15" markerHeight="12" orient="auto" fill="#000000" stroke="#000000"> 	  		<path id="_F2A6A99F-C696-424A-800F-88BA62595700frame2" d="M 0 1 L 15 6 L 0 11z" fill="#000000" stroke="#000000" stroke-linejoin="round" stroke-width="2"/> 	  	</marker><marker id="_78E2EED8-53D2-4849-B22E-6A421B571CC4start" refX="1" refY="5" markerUnits="userSpaceOnUse" markerWidth="17" markerHeight="11" orient="auto" fill="#000000" stroke="#000000"> 	  		<path id="_78E2EED8-53D2-4849-B22E-6A421B571CC4conditional" d="M 0 5 L 8 0 L 16 5 L 8 10 L 0 5" fill="white" stroke="#000000" stroke-width="1" display="none"/> 			<path id="_78E2EED8-53D2-4849-B22E-6A421B571CC4default" d="M 5 0 L 11 10" fill="white" stroke="#000000" stroke-width="1" display="none"/> 	  	</marker><marker id="_78E2EED8-53D2-4849-B22E-6A421B571CC4end" refX="15" refY="6" markerUnits="userSpaceOnUse" markerWidth="15" markerHeight="12" orient="auto" fill="#000000" stroke="#000000"> 	  		<path id="_78E2EED8-53D2-4849-B22E-6A421B571CC4frame2" d="M 0 1 L 15 6 L 0 11z" fill="#000000" stroke="#000000" stroke-linejoin="round" stroke-width="2"/> 	  	</marker></defs><g stroke="none" font-family="Verdana, sans-serif" font-size-adjust="none" font-style="normal" font-variant="normal" font-weight="normal" line-heigth="normal" font-size="12"><g class="stencils" transform="translate(15, 16.166666984558105)"><g class="me"/><g class="children"><g id="_8CF0DB12-1F76-48F0-B861-E99CC46F4C7B" bpmn2nodeid="_5AC46EC7-A24F-4CDA-907D-8FAE07F62B27"><g class="stencils" transform="translate(173, 93)"><g class="me"><g pointer-events="fill" oryx:minimumSize="50 40" id="_8CF0DB12-1F76-48F0-B861-E99CC46F4C7B">   	<defs id="_8CF0DB12-1F76-48F0-B861-E99CC46F4C7B__8CF0DB12-1F76-48F0-B861-E99CC46F4C7B_17"> 		<radialGradient id="_8CF0DB12-1F76-48F0-B861-E99CC46F4C7Bbackground" cx="10%" cy="10%" r="100%" fx="10%" fy="10%"> 			<stop offset="0%" stop-color="#ffffff" stop-opacity="1" id="_8CF0DB12-1F76-48F0-B861-E99CC46F4C7B__8CF0DB12-1F76-48F0-B861-E99CC46F4C7B_18"/> 			<stop id="_8CF0DB12-1F76-48F0-B861-E99CC46F4C7Bfill_el" offset="100%" stop-color="#fafad2" stop-opacity="1"/> 		</radialGradient> 		<radialGradient id="_8CF0DB12-1F76-48F0-B861-E99CC46F4C7Bborderbackground" cx="10%" cy="10%" r="100%" fx="10%" fy="10%"> 			<stop offset="0%" stop-color="#ffffff" stop-opacity="1" id="_8CF0DB12-1F76-48F0-B861-E99CC46F4C7B__8CF0DB12-1F76-48F0-B861-E99CC46F4C7B_19"/> 			<stop id="_8CF0DB12-1F76-48F0-B861-E99CC46F4C7Bfill_border" offset="100%" stop-color="#000000" stop-opacity="1" stroke="#000000"/> 		</radialGradient> 	</defs> 	 	<rect id="_8CF0DB12-1F76-48F0-B861-E99CC46F4C7Btext_frame" oryx:anchors="bottom top right left" x="1" y="1" width="94" height="79" rx="10" ry="10" stroke="none" stroke-width="0" fill="none"/> 	<rect id="_8CF0DB12-1F76-48F0-B861-E99CC46F4C7Bbg_frame" oryx:resize="vertical horizontal" x="0" y="0" width="100" height="80" rx="10" ry="10" stroke="#000000" stroke-width="1" fill="url(#_8CF0DB12-1F76-48F0-B861-E99CC46F4C7Bbackground) #ffffcc"/> 		<text font-size="12" id="_8CF0DB12-1F76-48F0-B861-E99CC46F4C7Btext_name" x="50" y="40" oryx:align="middle center" oryx:fittoelem="text_frame" stroke="black" text-anchor="middle" stroke-width="0pt" letter-spacing="-0.01px" fill="#000000" transform="rotate(0 50 40)" visibility="inherit" oryx:fontSize="12"><tspan x="50" y="40" dy="-1">Processo </tspan><tspan x="50" y="40" dy="11">Interno</tspan></text>     <g id="_8CF0DB12-1F76-48F0-B861-E99CC46F4C7BmanualTask" transform="scale(0.7,0.7) translate(8,8)" display="none">     	<path oryx:anchors="top left" id="_8CF0DB12-1F76-48F0-B861-E99CC46F4C7Bframe" style="opacity:1;fill:none;fill-opacity:1;stroke-width:1" d="M0.5,3.751l4.083-3.25c0,0,11.166,0.083,12.083,0.083s-2.417,2.917-1.5,2.917     s11.667,0,12.584,0c1.166,1.708-0.168,3.167-0.834,3.667s0.875,1.917-1,4.417c-0.75,0.25,0.75,1.875-1.333,3.333     c-1.167,0.583,0.583,1.542-1.25,2.833c-1.167,0-20.833,0.083-20.833,0.083l-2-1.333V3.751z" stroke="#000000"/> 		<path id="_8CF0DB12-1F76-48F0-B861-E99CC46F4C7Bframe2" oryx:anchors="top left" style="opacity:1;fill:none;stroke-width:2" d="M 13.5 7 L 27 7" stroke="#000000"/> 		<path id="_8CF0DB12-1F76-48F0-B861-E99CC46F4C7Bframe3" oryx:anchors="top left" style="opacity:1;fill:none;stroke-width:2" d="M 13.5 11 L 26 11" stroke="#000000"/> 		<path id="_8CF0DB12-1F76-48F0-B861-E99CC46F4C7Bframe4" oryx:anchors="top left" style="opacity:1;fill:none;stroke-width:1.5" d="M 14 14.5 L 25 14.5" stroke="#000000"/> 		<path id="_8CF0DB12-1F76-48F0-B861-E99CC46F4C7Bframe5" oryx:anchors="top left" style="opacity:1;fill:none;stroke-width:1.5" d="M 8.2 3.1 L 15 3.1" stroke="#000000"/> 	</g> 	 	<g id="_8CF0DB12-1F76-48F0-B861-E99CC46F4C7BbusinessRuleTask" transform="scale(0.7,0.7) translate(8,8)" display="none"> 		<rect id="_8CF0DB12-1F76-48F0-B861-E99CC46F4C7Bframe6" oryx:anchors="top left" x="0" y="0" width="22" height="4" style="opacity:1;fill:#B3B1B3;fill-opacity:1;" stroke="#000000"/> 		<rect id="_8CF0DB12-1F76-48F0-B861-E99CC46F4C7Bframe7" oryx:anchors="top left" x="0" y="4" style="opacity:1;fill:none;" width="22" height="12" stroke="#000000"/> 		<path id="_8CF0DB12-1F76-48F0-B861-E99CC46F4C7Bframe8" oryx:anchors="top left" style="opacity:1;fill:none;" d="M 0 10 L 22 10" stroke="#000000"/> 		<path id="_8CF0DB12-1F76-48F0-B861-E99CC46F4C7Bframe9" oryx:anchors="top left" style="opacity:1; fill:none;" d="M 7 4 L 7 16" stroke="#000000"/> 	</g> 	 	<g id="_8CF0DB12-1F76-48F0-B861-E99CC46F4C7BscriptTask" transform="scale(0.7,0.7) translate(8,8)" display="inherit"> 		<path oryx:anchors="top left" id="_8CF0DB12-1F76-48F0-B861-E99CC46F4C7Bframe10" style="opacity:1;fill:none;" stroke="#000000" d="M6.402,0.5h14.5c0,0-5.833,2.833-5.833,5.583s4.417,6,4.417,9.167    s-4.167,5.083-4.167,5.083H0.235c0,0,5-2.667,5-5s-4.583-6.75-4.583-9.25S6.402,0.5,6.402,0.5z"/> 		<path oryx:anchors="top left" id="_8CF0DB12-1F76-48F0-B861-E99CC46F4C7Bframe11" style="opacity:1;fill:none;stroke-width:1.5" d="M 3.5 4.5 L 13.5 4.5" stroke="#000000"/> 		<path oryx:anchors="top left" id="_8CF0DB12-1F76-48F0-B861-E99CC46F4C7Bframe12" style="opacity:1;fill:none;stroke-width:1.5" d="M 3.8 8.5 L 13.8 8.5" stroke="#000000"/> 		<path oryx:anchors="top left" id="_8CF0DB12-1F76-48F0-B861-E99CC46F4C7Bframe13" style="opacity:1;fill:none;stroke-width:1.5" d="M 6.3 12.5 L 16.3 12.5" stroke="#000000"/> 		<path oryx:anchors="top left" id="_8CF0DB12-1F76-48F0-B861-E99CC46F4C7Bframe14" style="opacity:1;fill:none;stroke-width:1.5" d="M 6.5 16.5 L 16.5 16.5" stroke="#000000"/> 	</g> 	 	<g id="_8CF0DB12-1F76-48F0-B861-E99CC46F4C7BuserTask" transform="scale(0.7,0.7) translate(8,8)" display="none"> 		<path id="_8CF0DB12-1F76-48F0-B861-E99CC46F4C7Bframe15" oryx:anchors="top left" style="opacity:1;fill:#F4F6F7" stroke="#000000" d="M0.585,24.167h24.083v-7.833c0,0-2.333-3.917-7.083-5.167h-9.25    c-4.417,1.333-7.833,5.75-7.833,5.75L0.585,24.167z"/> 		<path id="_8CF0DB12-1F76-48F0-B861-E99CC46F4C7Bframe16" oryx:anchors="top left" style="opacity:1;fill:none" d="M 6 20 L 6 24" stroke="#000000"/> 		<path id="_8CF0DB12-1F76-48F0-B861-E99CC46F4C7Bframe17" oryx:anchors="top left" style="opacity:1;fill:none" d="M 20 20 L 20 24" stroke="#000000"/> 		<circle id="_8CF0DB12-1F76-48F0-B861-E99CC46F4C7Bframe18" oryx:anchors="top left" fill="black" cx="13.002" cy="5.916" r="5.417" stroke="#000000"/> 		<path id="_8CF0DB12-1F76-48F0-B861-E99CC46F4C7Bframe19" oryx:anchors="top left" style="opacity:1;fill:#F0EFF0;" stroke="#000000" d="M8.043,7.083c0,0,2.814-2.426,5.376-1.807s4.624-0.693,4.624-0.693    c0.25,1.688,0.042,3.75-1.458,5.584c0,0,1.083,0.75,1.083,1.5s0.125,1.875-1,3s-5.5,1.25-6.75,0S8.668,12.834,8.668,12    s0.583-1.25,1.25-1.917C8.835,9.5,7.419,7.708,8.043,7.083z"/> 	</g> 	 	<g id="_8CF0DB12-1F76-48F0-B861-E99CC46F4C7BserviceTask" transform="scale(0.7,0.7) translate(8,8)" display="none"> 		<polygon oryx:anchors="top left" id="_8CF0DB12-1F76-48F0-B861-E99CC46F4C7Bframe20" style="opacity:1;fill:#ffffff" stroke="#000000" points="15.392,5.064 17.954,2.502 20.347,4.895 17.786,7.455     18.729,9.732 22.353,9.732 22.353,13.115 18.731,13.115 17.788,15.392 20.351,17.955 17.958,20.347 15.397,17.786 13.12,18.729     13.12,22.353 9.737,22.353 9.737,18.731 7.46,17.788 4.897,20.35 2.506,17.958 5.066,15.397 4.124,13.12 0.5,13.12 0.5,9.737     4.121,9.737 5.065,7.461 2.503,4.898 4.895,2.506 7.455,5.066 9.732,4.125 9.732,0.5 13.116,0.5 13.116,4.121 "/> 		<circle oryx:anchors="top left" id="_8CF0DB12-1F76-48F0-B861-E99CC46F4C7Bframe21" style="opacity:1;fill:none" stroke="#000000" cx="11.427" cy="11.426" r="3.714"/> 		<polygon oryx:anchors="top left" id="_8CF0DB12-1F76-48F0-B861-E99CC46F4C7Bframe22" style="opacity:1;fill:#ffffff" stroke="#000000" points="21.392,11.064 23.954,8.502 26.347,10.895 23.786,13.455     24.729,15.732 28.353,15.732 28.353,19.115 24.731,19.115 23.788,21.392 26.351,23.955 23.958,26.347 21.397,23.786 19.12,24.729     19.12,28.353 15.737,28.353 15.737,24.731 13.46,23.788 10.897,26.35 8.506,23.958 11.066,21.397 10.124,19.12 6.5,19.12     6.5,15.737 10.121,15.737 11.065,13.461 8.503,10.898 10.895,8.506 13.455,11.066 15.732,10.125 15.732,6.5 19.116,6.5     19.116,10.121 "/> 		<circle oryx:anchors="top left" id="_8CF0DB12-1F76-48F0-B861-E99CC46F4C7Bframe23" style="opacity:1;fill:none;" stroke="#000000" cx="17.427" cy="17.426" r="3.714"/> 	</g> 	 	<g id="_8CF0DB12-1F76-48F0-B861-E99CC46F4C7BsendTask" display="none"> 		<path id="_8CF0DB12-1F76-48F0-B861-E99CC46F4C7Bstframe24" oryx:anchors="left top" stroke="#FFFFFF" fill="black" stroke-width="1" d="M8,11 L8,21 L24,21 L24,11 L16,17z"/> 		<path id="_8CF0DB12-1F76-48F0-B861-E99CC46F4C7Bstframe25" oryx:anchors="left top" stroke="#FFFFFF" fill="black" stroke-width="1" d="M7,10 L16,17 L25 10z"/> 	</g> 	 	<g id="_8CF0DB12-1F76-48F0-B861-E99CC46F4C7BreceiveTask" display="none"> 		<path id="_8CF0DB12-1F76-48F0-B861-E99CC46F4C7Bframe26" oryx:anchors="left top" stroke="#000000" fill="none" stroke-width="1" d="M8,11 L8,21 L24,21 L24,11z M8,11 L16,17 L24,11"/> 	</g> 	 	<g id="_8CF0DB12-1F76-48F0-B861-E99CC46F4C7Bnone" display="inherit"/>  	<g id="_8CF0DB12-1F76-48F0-B861-E99CC46F4C7Bsequential" display="none">         <path oryx:anchors="bottom" fill="none" stroke="#000000" stroke-width="2" d="M46,76h10M46,72h10 M46,68h10" id="_8CF0DB12-1F76-48F0-B861-E99CC46F4C7B__8CF0DB12-1F76-48F0-B861-E99CC46F4C7B_20"/>     </g>   </g></g><g class="children" style="overflow:hidden"/><g class="edge"/></g><g class="controls"><g class="dockers"/><g class="magnets" transform="translate(173, 93)"><g pointer-events="all" display="none" transform="translate(-7, 12)"><circle cx="8" cy="8" r="4" stroke="none" fill="red" fill-opacity="0.3"/></g><g pointer-events="all" display="none" transform="translate(-7, 32)"><circle cx="8" cy="8" r="4" stroke="none" fill="red" fill-opacity="0.3"/></g><g pointer-events="all" display="none" transform="translate(-7, 52)"><circle cx="8" cy="8" r="4" stroke="none" fill="red" fill-opacity="0.3"/></g><g pointer-events="all" display="none" transform="translate(17, 71)"><circle cx="8" cy="8" r="4" stroke="none" fill="red" fill-opacity="0.3"/></g><g pointer-events="all" display="none" transform="translate(42, 71)"><circle cx="8" cy="8" r="4" stroke="none" fill="red" fill-opacity="0.3"/></g><g pointer-events="all" display="none" transform="translate(67, 71)"><circle cx="8" cy="8" r="4" stroke="none" fill="red" fill-opacity="0.3"/></g><g pointer-events="all" display="none" transform="translate(91, 12)"><circle cx="8" cy="8" r="4" stroke="none" fill="red" fill-opacity="0.3"/></g><g pointer-events="all" display="none" transform="translate(91, 32)"><circle cx="8" cy="8" r="4" stroke="none" fill="red" fill-opacity="0.3"/></g><g pointer-events="all" display="none" transform="translate(91, 52)"><circle cx="8" cy="8" r="4" stroke="none" fill="red" fill-opacity="0.3"/></g><g pointer-events="all" display="none" transform="translate(17, -7)"><circle cx="8" cy="8" r="4" stroke="none" fill="red" fill-opacity="0.3"/></g><g pointer-events="all" display="none" transform="translate(42, -7)"><circle cx="8" cy="8" r="4" stroke="none" fill="red" fill-opacity="0.3"/></g><g pointer-events="all" display="none" transform="translate(67, -7)"><circle cx="8" cy="8" r="4" stroke="none" fill="red" fill-opacity="0.3"/></g><g pointer-events="all" display="none" transform="translate(42, 32)"><circle cx="8" cy="8" r="4" stroke="none" fill="red" fill-opacity="0.3"/></g></g></g></g><g id="_C2CCB415-9E96-4BBA-9F65-326B23625F10" bpmn2nodeid="_D7ED4828-DD84-4122-A73F-B0C2F4959725"><g class="stencils" transform="translate(315, 118)"><g class="me"><g pointer-events="fill" id="_C2CCB415-9E96-4BBA-9F65-326B23625F10">        <defs id="_C2CCB415-9E96-4BBA-9F65-326B23625F10__C2CCB415-9E96-4BBA-9F65-326B23625F10_6"> 		<radialGradient id="_C2CCB415-9E96-4BBA-9F65-326B23625F10background" cx="10%" cy="10%" r="100%" fx="10%" fy="10%"> 			<stop offset="0%" stop-color="#ffffff" stop-opacity="1" id="_C2CCB415-9E96-4BBA-9F65-326B23625F10__C2CCB415-9E96-4BBA-9F65-326B23625F10_7"/> 			<stop id="_C2CCB415-9E96-4BBA-9F65-326B23625F10fill_el" offset="100%" stop-color="#f5deb3" stop-opacity="1"/> 		</radialGradient> 	</defs>          <circle id="_C2CCB415-9E96-4BBA-9F65-326B23625F10bg_frame" cx="15" cy="15" r="15" stroke="#a0522d" fill="url(#_C2CCB415-9E96-4BBA-9F65-326B23625F10background) white" stroke-width="1" style="stroke-dasharray: 5.5, 3"/>     	     <circle id="_C2CCB415-9E96-4BBA-9F65-326B23625F10frame" cx="15" cy="15" r="12" stroke="#a0522d" fill="none" stroke-width="1" style="stroke-dasharray: 4.5, 3" display="none"/>          <circle id="_C2CCB415-9E96-4BBA-9F65-326B23625F10frame2" cx="15" cy="15" r="15" stroke="#a0522d" fill="none" stroke-width="1" display="inherit"/>     <circle id="_C2CCB415-9E96-4BBA-9F65-326B23625F10frame3" cx="15" cy="15" r="12" stroke="#a0522d" fill="none" stroke-width="1" display="inherit"/>          <circle id="_C2CCB415-9E96-4BBA-9F65-326B23625F10frame4" cx="15" cy="15" r="10" stroke="#a0522d" fill="none" stroke-width="1"/>     <path id="_C2CCB415-9E96-4BBA-9F65-326B23625F10frame5" d=" M15 5  L15 8  M20 6  L18.5 9  M24 10  L21 11.5  M25 15  L22 15  M24 20  L21 18.5  M20 24  L18.5 21  M15 25  L15 22  M10 24  L11.5 21  M6 20  L9 18.5  M5 15  L8 15  M6 10  L9 11.5  M10 6  L11.5 9  M17 8  L15 15  L19 15 " fill="none" stroke="#a0522d"/> 	<text font-size="11" id="_C2CCB415-9E96-4BBA-9F65-326B23625F10text_name" x="15" y="32" oryx:align="top center" stroke="black" stroke-width="0pt" letter-spacing="-0.01px" fill="#000000" text-anchor="middle" transform="rotate(0 15 32)" visibility="inherit" oryx:fontSize="11"><tspan x="15" y="32" dy="11" id="ext-gen646">Aguardar Finalização Processo</tspan></text>   </g></g><g class="children" style="overflow:hidden"/><g class="edge"/></g><g class="controls"><g class="dockers"/><g class="magnets" transform="translate(315, 118)"><g pointer-events="all" display="none" transform="translate(7, 7)"><circle cx="8" cy="8" r="4" stroke="none" fill="red" fill-opacity="0.3"/></g></g></g></g><g id="_04D0683D-3D74-49E6-96F5-4CBCEFA37F27" bpmn2nodeid="_F0DB6C24-A7E1-4A89-B48F-BFE3384CDADF"><g class="stencils" transform="translate(405, 118)"><g class="me"><g pointer-events="fill" id="_04D0683D-3D74-49E6-96F5-4CBCEFA37F27">        <defs id="_04D0683D-3D74-49E6-96F5-4CBCEFA37F27__04D0683D-3D74-49E6-96F5-4CBCEFA37F27_6"> 		<radialGradient id="_04D0683D-3D74-49E6-96F5-4CBCEFA37F27background" cx="10%" cy="10%" r="100%" fx="10%" fy="10%"> 			<stop offset="0%" stop-color="#ffffff" stop-opacity="1" id="_04D0683D-3D74-49E6-96F5-4CBCEFA37F27__04D0683D-3D74-49E6-96F5-4CBCEFA37F27_7"/> 			<stop id="_04D0683D-3D74-49E6-96F5-4CBCEFA37F27fill_el" offset="100%" stop-color="#8cabff" stop-opacity="1"/> 		</radialGradient> 		<radialGradient id="_04D0683D-3D74-49E6-96F5-4CBCEFA37F27borderbackground" cx="10%" cy="10%" r="100%" fx="10%" fy="10%"> 			<stop offset="0%" stop-color="#ffffff" stop-opacity="1" id="_04D0683D-3D74-49E6-96F5-4CBCEFA37F27__04D0683D-3D74-49E6-96F5-4CBCEFA37F27_8"/> 			<stop id="_04D0683D-3D74-49E6-96F5-4CBCEFA37F27fill_border" offset="100%" stop-color="#008cec" stop-opacity="1" stroke="#008cec"/> 		</radialGradient> 	</defs> 	     <circle id="_04D0683D-3D74-49E6-96F5-4CBCEFA37F27bg_frame" cx="15" cy="15" r="15" stroke="#008cec" fill="url(#_04D0683D-3D74-49E6-96F5-4CBCEFA37F27background) white" stroke-width="1"/>     <circle id="_04D0683D-3D74-49E6-96F5-4CBCEFA37F27frame" cx="15" cy="15" r="12" stroke="#008cec" fill="none" stroke-width="1"/>     <path id="_04D0683D-3D74-49E6-96F5-4CBCEFA37F27frame2" stroke="#008cec" fill="url(#_04D0683D-3D74-49E6-96F5-4CBCEFA37F27borderbackground)" d=" M7.7124971 20.247342  L22.333334 20.247342  L15.022915000000001 7.575951200000001  L7.7124971 20.247342  z" style="stroke-width:1.4;stroke-miterlimit:4;stroke-dasharray:none"/> 	<text font-size="11" id="_04D0683D-3D74-49E6-96F5-4CBCEFA37F27text_name" x="15" y="32" oryx:align="top center" stroke="black" stroke-width="0pt" letter-spacing="-0.01px" fill="#000000" text-anchor="middle" transform="rotate(0 15 32)" visibility="inherit" oryx:fontSize="11"/>   </g></g><g class="children" style="overflow:hidden"/><g class="edge"/></g><g class="controls"><g class="dockers"/><g class="magnets" transform="translate(405, 118)"><g pointer-events="all" display="none" transform="translate(7, 7)"><circle cx="8" cy="8" r="4" stroke="none" fill="red" fill-opacity="0.3"/></g></g></g></g><g id="_24E1069F-8FAC-43E2-B1F7-E8E493766018" bpmn2nodeid="_9A62D6CE-123B-4989-8012-4EFF855C48BF"><g class="stencils" transform="translate(480, 120)"><g class="me"><g pointer-events="fill" id="_24E1069F-8FAC-43E2-B1F7-E8E493766018">      <defs id="_24E1069F-8FAC-43E2-B1F7-E8E493766018__24E1069F-8FAC-43E2-B1F7-E8E493766018_5"> 		<radialGradient id="_24E1069F-8FAC-43E2-B1F7-E8E493766018background" cx="10%" cy="10%" r="100%" fx="10%" fy="10%"> 			<stop offset="0%" stop-color="#ffffff" stop-opacity="1" id="_24E1069F-8FAC-43E2-B1F7-E8E493766018__24E1069F-8FAC-43E2-B1F7-E8E493766018_6"/> 			<stop id="_24E1069F-8FAC-43E2-B1F7-E8E493766018fill_el" offset="100%" stop-color="#ff6347" stop-opacity="1"/> 		</radialGradient> 	</defs> 	     <circle id="_24E1069F-8FAC-43E2-B1F7-E8E493766018bg_frame" cx="14" cy="14" r="14" stroke="#000000" fill="url(#_24E1069F-8FAC-43E2-B1F7-E8E493766018background) white" stroke-width="3"/> 	<text font-size="11" id="_24E1069F-8FAC-43E2-B1F7-E8E493766018text_name" x="14" y="30" oryx:align="top center" stroke="black" stroke-width="0pt" letter-spacing="-0.01px" fill="#000000" text-anchor="middle" transform="rotate(0 14 30)" visibility="inherit" oryx:fontSize="11"/>   </g></g><g class="children" style="overflow:hidden"/><g class="edge"/></g><g class="controls"><g class="dockers"/><g class="magnets" transform="translate(480, 120)"><g pointer-events="all" display="none" transform="translate(6, 6)"><circle cx="8" cy="8" r="4" stroke="none" fill="red" fill-opacity="0.3"/></g></g></g></g><g id="_64A609C4-F4FD-4A03-BF17-2E23E1BA3C51" bpmn2nodeid="_B6A96AA6-1F52-4989-AB63-BB5DDFB8C9B8"><g class="stencils" transform="translate(90, 120)"><g class="me"><g pointer-events="fill" id="_64A609C4-F4FD-4A03-BF17-2E23E1BA3C51">      <defs id="_64A609C4-F4FD-4A03-BF17-2E23E1BA3C51__64A609C4-F4FD-4A03-BF17-2E23E1BA3C51_5"> 		<radialGradient id="_64A609C4-F4FD-4A03-BF17-2E23E1BA3C51background" cx="10%" cy="10%" r="100%" fx="10%" fy="10%"> 			<stop offset="0%" stop-color="#ffffff" stop-opacity="1" id="_64A609C4-F4FD-4A03-BF17-2E23E1BA3C51__64A609C4-F4FD-4A03-BF17-2E23E1BA3C51_6"/> 			<stop id="_64A609C4-F4FD-4A03-BF17-2E23E1BA3C51fill_el" offset="100%" stop-color="#9acd32" stop-opacity="1"/> 		</radialGradient> 	</defs> 	     <circle id="_64A609C4-F4FD-4A03-BF17-2E23E1BA3C51bg_frame" cx="15" cy="15" r="15" stroke="#000000" fill="url(#_64A609C4-F4FD-4A03-BF17-2E23E1BA3C51background) white" stroke-width="1" style="stroke-dasharray: 5.5, 3"/>      <circle id="_64A609C4-F4FD-4A03-BF17-2E23E1BA3C51frame" cx="15" cy="15" r="15" stroke="#000000" fill="none" stroke-width="1" display="inherit"/>      <path id="_64A609C4-F4FD-4A03-BF17-2E23E1BA3C51body" d=" M7.7124971 20.247342  L22.333334 20.247342  L15.022915000000001 7.575951200000001  L7.7124971 20.247342  z" stroke="black" style="fill:none;stroke-width:1.4;stroke-miterlimit:4;stroke-dasharray:none"/> 	<text font-size="11" id="_64A609C4-F4FD-4A03-BF17-2E23E1BA3C51text_name" x="15" y="32" oryx:align="top center" stroke="black" stroke-width="0pt" letter-spacing="-0.01px" fill="#000000" text-anchor="middle" transform="rotate(0 15 32)" visibility="inherit" oryx:fontSize="11"/>   </g></g><g class="children" style="overflow:hidden"/><g class="edge"/></g><g class="controls"><g class="dockers"/><g class="magnets" transform="translate(90, 120)"><g pointer-events="all" display="none" transform="translate(7, 7)"><circle cx="8" cy="8" r="4" stroke="none" fill="red" fill-opacity="0.3"/></g></g></g></g></g><g class="edge"><g id="_960D1B66-5946-4956-8622-E581743BF897" bpmn2nodeid="_7E092F3A-84B6-4C35-A422-3EC6DE0D0455"><g class="stencils"><g class="me"><g pointer-events="painted" bpmn2nodeid="_5763E51E-BC94-4DB4-A39F-AF3BDD9C2823"><path id="_960D1B66-5946-4956-8622-E581743BF897_1" d="M273.3203125 133L314.7890625 133 " stroke="#000000" fill="none" stroke-width="2" stroke-linecap="round" stroke-linejoin="round" marker-start="url(#_960D1B66-5946-4956-8622-E581743BF897start)" marker-end="url(#_960D1B66-5946-4956-8622-E581743BF897end)"/></g><text id="_960D1B66-5946-4956-8622-E581743BF897text_name" font-size="12" x="287.3203125" y="119" oryx:edgePosition="startTop" stroke-width="0pt" letter-spacing="-0.01px" fill="#000000" text-anchor="start" transform="rotate(360 273.3203125 133)" visibility="inherit" oryx:fontSize="12"/></g><g class="children" style="overflow:hidden"/><g class="edge"/></g><g class="controls"><g class="dockers"/><g class="magnets"/></g></g><g id="_AB5940FB-773B-44DD-9CB9-C86C73CFB565" bpmn2nodeid="_013B3D7C-D3AA-4EC2-B5E4-AA4791DC2B47"><g class="stencils"><g class="me"><g pointer-events="painted" bpmn2nodeid="_B410E372-6A21-4B9F-8EED-E2E6279833FB"><path id="_AB5940FB-773B-44DD-9CB9-C86C73CFB565_1" d="M345.0625 133L404.9375 133 " stroke="#000000" fill="none" stroke-width="2" stroke-linecap="round" stroke-linejoin="round" marker-start="url(#_AB5940FB-773B-44DD-9CB9-C86C73CFB565start)" marker-end="url(#_AB5940FB-773B-44DD-9CB9-C86C73CFB565end)"/></g><text id="_AB5940FB-773B-44DD-9CB9-C86C73CFB565text_name" font-size="12" x="359.0625" y="119" oryx:edgePosition="startTop" stroke-width="0pt" letter-spacing="-0.01px" fill="#000000" text-anchor="start" transform="rotate(360 345.0625 133)" visibility="inherit" oryx:fontSize="12"/></g><g class="children" style="overflow:hidden"/><g class="edge"/></g><g class="controls"><g class="dockers"/><g class="magnets"/></g></g><g id="_F2A6A99F-C696-424A-800F-88BA62595700" bpmn2nodeid="_BC225C3B-B3B6-44EB-BF2D-5E6194A0192C"><g class="stencils"><g class="me"><g pointer-events="painted" bpmn2nodeid="_2C0B5B08-432F-4522-86D5-C4E04FF4583A"><path id="_F2A6A99F-C696-424A-800F-88BA62595700_1" d="M435.45303370497993 133.20882477979703L479.12509129502007 133.79898772020297 " stroke="#000000" fill="none" stroke-width="2" stroke-linecap="round" stroke-linejoin="round" marker-start="url(#_F2A6A99F-C696-424A-800F-88BA62595700start)" marker-end="url(#_F2A6A99F-C696-424A-800F-88BA62595700end)"/></g><text id="_F2A6A99F-C696-424A-800F-88BA62595700text_name" font-size="12" x="449.45303370497993" y="119.20882477979703" oryx:edgePosition="startTop" stroke-width="0pt" letter-spacing="-0.01px" fill="#000000" text-anchor="start" transform="rotate(0.7742201649280673 435.45303370497993 133.20882477979703)" visibility="inherit" oryx:fontSize="12"/></g><g class="children" style="overflow:hidden"/><g class="edge"/></g><g class="controls"><g class="dockers"/><g class="magnets"/></g></g><g id="_78E2EED8-53D2-4849-B22E-6A421B571CC4" bpmn2nodeid="_26A8F774-F98D-494D-984C-CFC2494B6CA8"><g class="stencils"><g class="me"><g pointer-events="painted" bpmn2nodeid="_D05EB4CF-2FD6-4473-8A19-BB4B98A54AC8"><path id="_78E2EED8-53D2-4849-B22E-6A421B571CC4_1" d="M120.74985639405398 134.7330532814567L172.21889360594602 133.8606967185433 " stroke="#000000" fill="none" stroke-width="2" stroke-linecap="round" stroke-linejoin="round" marker-start="url(#_78E2EED8-53D2-4849-B22E-6A421B571CC4start)" marker-end="url(#_78E2EED8-53D2-4849-B22E-6A421B571CC4end)"/></g><text id="_78E2EED8-53D2-4849-B22E-6A421B571CC4text_name" font-size="12" x="134.74985639405398" y="120.7330532814567" oryx:edgePosition="startTop" stroke-width="0pt" letter-spacing="-0.01px" fill="#000000" text-anchor="start" transform="rotate(359.0289780689208 120.74985639405398 134.7330532814567)" visibility="inherit" oryx:fontSize="12"/></g><g class="children" style="overflow:hidden"/><g class="edge"/></g><g class="controls"><g class="dockers"/><g class="magnets"/></g></g></g><text id="_B0054379-1F62-43AB-ACDB-856B6A336680" style="stroke-width:1;fill:rgb(177,194,214);font-family:arial;font-weight:bold" font-size="12" onclick="ORYX.Plugins.CanvasTitle.openTextualAnalysis()" onmouseover="ORYX.Plugins.CanvasTitle.addToolTip('_B0054379-1F62-43AB-ACDB-856B6A336680')" transform="translate(10, 20)">geracaoCartao v.1.0 (bankAccount.geracaoCartao)</text></g></g></svg>